<?xml version="1.0" encoding="UTF-8" standalone="no"?>
<svg
   xmlns:dc="http://purl.org/dc/elements/1.1/"
   xmlns:cc="http://creativecommons.org/ns#"
   xmlns:rdf="http://www.w3.org/1999/02/22-rdf-syntax-ns#"
   xmlns:svg="http://www.w3.org/2000/svg"
   xmlns="http://www.w3.org/2000/svg"
   viewBox="0 0 666.66669 496.81332"
   height="496.81332"
   width="666.66669"
   xml:space="preserve"
   id="svg2"
   version="1.1"><metadata
     id="metadata8"><rdf:RDF><cc:Work
         rdf:about=""><dc:format>image/svg+xml</dc:format><dc:type
           rdf:resource="http://purl.org/dc/dcmitype/StillImage" /></cc:Work></rdf:RDF></metadata><defs
     id="defs6" /><g
     transform="matrix(1.3333333,0,0,-1.3333333,0,496.81333)"
     id="g10"><g
       transform="scale(0.1)"
       id="g12"><path
         id="path14"
         style="fill:#eeeeee;fill-opacity:1;fill-rule:nonzero;stroke:none"
         d="m 0,449.129 h 5000 v 2.5 H 0 Z" /><path
         id="path16"
         style="fill:#eeeeee;fill-opacity:1;fill-rule:nonzero;stroke:none"
         d="m 4167.79,290.672 h 331.22 v -2.5 h -331.22 v 2.5" /><path
         id="path18"
         style="fill:#eeeeee;fill-opacity:1;fill-rule:nonzero;stroke:none"
         d="m 3225.27,263.539 h 86.93 v -2.5 h -86.93 v 2.5" /><path
         id="path20"
         style="fill:#eeeeee;fill-opacity:1;fill-rule:nonzero;stroke:none"
         d="m 3965.86,383.539 h 191.92 v -2.5 h -191.92 v 2.5" /><path
         id="path22"
         style="fill:#eeeeee;fill-opacity:1;fill-rule:nonzero;stroke:none"
         d="m 524.59,366.73 h 431.933 v -2.5 H 524.59 v 2.5" /><path
         id="path24"
         style="fill:#eeeeee;fill-opacity:1;fill-rule:nonzero;stroke:none"
         d="m 1045.56,366.73 h 63.33 v -2.5 h -63.33 v 2.5" /><path
         id="path26"
         style="fill:#eeeeee;fill-opacity:1;fill-rule:nonzero;stroke:none"
         d="m 1314.71,322.012 h 936.758 v 2.5 H 1314.71 Z" /><path
         id="path28"
         style="fill:#eeeeee;fill-opacity:1;fill-rule:nonzero;stroke:none"
         d="m 439.152,3723.59 c -30.101,0 -54.582,-24.48 -54.582,-54.57 V 954.699 c 0,-30.097 24.481,-54.578 54.582,-54.578 H 2370.14 c 30.08,0 54.57,24.481 54.57,54.578 V 3669.02 c 0,30.09 -24.49,54.57 -54.57,54.57 H 439.152 M 2370.14,897.621 H 439.152 c -31.476,0 -57.082,25.598 -57.082,57.078 V 3669.02 c 0,31.46 25.606,57.07 57.082,57.07 H 2370.14 c 31.46,0 57.07,-25.61 57.07,-57.07 V 954.699 c 0,-31.48 -25.61,-57.078 -57.07,-57.078" /><path
         id="path30"
         style="fill:#eeeeee;fill-opacity:1;fill-rule:nonzero;stroke:none"
         d="m 2602.12,3723.59 c -30.09,0 -54.57,-24.48 -54.57,-54.57 V 954.699 c 0,-30.097 24.48,-54.578 54.57,-54.578 h 1930.99 c 30.09,0 54.58,24.481 54.58,54.578 V 3669.02 c 0,30.09 -24.49,54.57 -54.58,54.57 H 2602.12 M 4533.11,897.621 H 2602.12 c -31.47,0 -57.07,25.598 -57.07,57.078 V 3669.02 c 0,31.46 25.6,57.07 57.07,57.07 h 1930.99 c 31.47,0 57.08,-25.61 57.08,-57.07 V 954.699 c 0,-31.48 -25.61,-57.078 -57.08,-57.078" /><path
         id="path32"
         style="fill:#e9e9e8;fill-opacity:1;fill-rule:nonzero;stroke:none"
         d="M 2797.46,2069.9 H 4441.92 V 3529.12 H 2797.46 Z" /><path
         id="path34"
         style="fill:#f4f4f4;fill-opacity:1;fill-rule:nonzero;stroke:none"
         d="m 2838.64,2109.12 h 1560 v 1380 h -1560 z" /><path
         id="path36"
         style="fill:#ffffff;fill-opacity:1;fill-rule:nonzero;stroke:none"
         d="M 3204.76,3489.12 2838.64,2112.11 v 647.05 l 193.3,729.96 h 172.82" /><path
         id="path38"
         style="fill:#ffffff;fill-opacity:1;fill-rule:nonzero;stroke:none"
         d="m 3334.42,3489.12 -369.33,-1380 h -58.94 l 369.33,1380 h 58.94" /><path
         id="path40"
         style="fill:#ffffff;fill-opacity:1;fill-rule:nonzero;stroke:none"
         d="m 4398.64,2618.33 v -220.52 l -74.73,-288.69 h -58.95 l 133.68,509.21" /><path
         id="path42"
         style="fill:#e9e9e8;fill-opacity:1;fill-rule:nonzero;stroke:none"
         d="m 3356.46,2078.29 h 26.2773 V 3513.92 H 3356.46 Z" /><path
         id="path44"
         style="fill:#e9e9e8;fill-opacity:1;fill-rule:nonzero;stroke:none"
         d="m 3865.73,2078.29 h 26.2813 V 3513.92 H 3865.73 Z" /><path
         id="path46"
         style="fill:#f8f8f9;fill-opacity:1;fill-rule:nonzero;stroke:none"
         d="M 1431.32,1265.12 H 524.59 V 451.98 h 906.73 v 813.14" /><path
         id="path48"
         style="fill:#eeeeee;fill-opacity:1;fill-rule:nonzero;stroke:none"
         d="M 840.156,1265.12 H 524.59 V 451.98 h 315.566 v 813.14" /><path
         id="path50"
         style="fill:#eeeeee;fill-opacity:1;fill-rule:nonzero;stroke:none"
         d="m 705.035,1248.35 h 906.734 v 813.137 H 705.035 Z" /><path
         id="path52"
         style="fill:#e3e3e2;fill-opacity:1;fill-rule:nonzero;stroke:none"
         d="M 1020.6,2061.49 H 705.035 V 1248.35 H 1020.6 v 813.14" /><path
         id="path54"
         style="fill:#f8f8f9;fill-opacity:1;fill-rule:nonzero;stroke:none"
         d="m 524.59,2059.05 h 906.73 v 813.133 H 524.59 Z" /><path
         id="path56"
         style="fill:#eeeeee;fill-opacity:1;fill-rule:nonzero;stroke:none"
         d="M 840.156,2872.18 H 524.59 v -813.13 h 315.566 v 813.13" /><path
         id="path58"
         style="fill:#eeeeee;fill-opacity:1;fill-rule:nonzero;stroke:none"
         d="m 1511.28,451.27 h 906.73 v 813.129 h -906.73 z" /><path
         id="path60"
         style="fill:#e3e3e2;fill-opacity:1;fill-rule:nonzero;stroke:none"
         d="m 1511.28,451.27 h 315.57 v 813.129 h -315.57 z" /><path
         id="path62"
         style="fill:#f8f8f9;fill-opacity:1;fill-rule:nonzero;stroke:none"
         d="m 1611.72,1247.65 h 906.742 v 509.293 H 1611.72 Z" /><path
         id="path64"
         style="fill:#e9e9e8;fill-opacity:1;fill-rule:nonzero;stroke:none"
         d="m 1611.72,1247.65 h 315.57 v 509.293 h -315.57 z" /><path
         id="path66"
         style="fill:#eeeeee;fill-opacity:1;fill-rule:nonzero;stroke:none"
         d="m 1541.28,1748.34 h 585.82 v 813.141 h -585.82 z" /><path
         id="path68"
         style="fill:#e3e3e2;fill-opacity:1;fill-rule:nonzero;stroke:none"
         d="m 1541.28,1748.34 h 203.879 v 813.141 H 1541.28 Z" /><path
         id="path70"
         style="fill:#f8f8f9;fill-opacity:1;fill-rule:nonzero;stroke:none"
         d="m 3465.1,1263.69 h 906.73 V 450.559 H 3465.1 v 813.131" /><path
         id="path72"
         style="fill:#e9e9e8;fill-opacity:1;fill-rule:nonzero;stroke:none"
         d="m 4056.27,1263.69 h 315.56 V 450.559 h -315.56 v 813.131" /><path
         id="path74"
         style="fill:#eeeeee;fill-opacity:1;fill-rule:nonzero;stroke:none"
         d="m 3284.66,1246.94 h 906.73 v 661.891 h -906.73 z" /><path
         id="path76"
         style="fill:#e3e3e2;fill-opacity:1;fill-rule:nonzero;stroke:none"
         d="m 3875.82,1246.94 h 315.57 v 661.891 h -315.57 z" /><path
         id="path78"
         style="fill:#f8f8f9;fill-opacity:1;fill-rule:nonzero;stroke:none"
         d="m 3497.47,1908.85 h 874.371 v 323.969 H 3497.47 Z" /><path
         id="path80"
         style="fill:#e9e9e8;fill-opacity:1;fill-rule:nonzero;stroke:none"
         d="m 4067.53,1908.85 h 304.309 v 323.969 H 4067.53 Z" /><path
         id="path82"
         style="fill:#f8f8f9;fill-opacity:1;fill-rule:nonzero;stroke:none"
         d="M 4438.89,113.23 C 4438.89,50.6914 3570.83,0 2500,0 1429.18,0 561.113,50.6914 561.113,113.23 c 0,62.54 868.067,113.239 1938.887,113.239 1070.83,0 1938.89,-50.699 1938.89,-113.239" /><path
         id="path84"
         style="fill:#4870c0;fill-opacity:1;fill-rule:nonzero;stroke:none"
         d="m 3578.61,2833.05 h -278.35 c -25,0 -45.27,20.28 -45.27,45.28 v 252.46 c 0,25.01 20.27,45.28 45.27,45.28 h 278.35 c 25,0 45.27,-20.27 45.27,-45.28 v -252.46 c 0,-25 -20.27,-45.28 -45.27,-45.28" /><path
         id="path86"
         style="fill:#4870c0;fill-opacity:1;fill-rule:nonzero;stroke:none"
         d="m 3403.42,2876.68 c 0,0 23.29,-112.64 182.06,-175.15 0,0 -97.09,62.04 -91.03,175.15 h -91.03" /><path
         id="path88"
         style="fill:#ffffff;fill-opacity:1;fill-rule:nonzero;stroke:none"
         d="m 3347.44,3005.56 52.66,-73.22 c 2.69,-3.74 7,-6.05 11.6,-6.23 4.6,-0.18 9.08,1.8 12.04,5.32 l 106.99,126.93 c 5.34,6.33 4.53,15.79 -1.8,21.13 -6.34,5.34 -15.8,4.53 -21.14,-1.8 l -94.58,-112.21 -41.42,57.6 c -4.84,6.72 -14.21,8.26 -20.93,3.42 -6.73,-4.84 -8.26,-14.21 -3.42,-20.94" /><path
         id="path90"
         style="fill:#1d2a30;fill-opacity:1;fill-rule:nonzero;stroke:none"
         d="m 3925.29,2781.44 c 48.92,-35.15 93.06,-95.14 60.1,-263.17 -32.97,-168.04 -41.44,-207.96 -41.44,-207.96 l -319.88,35.96 c 0,0 -15,148.71 10.54,288.61 33.01,180.71 147.5,249.42 290.68,146.56" /><path
         id="path92"
         style="fill:#fab6b9;fill-opacity:1;fill-rule:nonzero;stroke:none"
         d="m 3604.96,1853.15 c 0,0 -108.37,-577.66 -137.29,-814.82 -37.79,-309.389 -192.28,-762.01 -192.28,-762.01 l 61.77,-15.968 c 0,0 217.81,384.617 260.27,730.718 173.01,353.68 186.98,789.22 186.98,789.22 l -179.45,72.86" /><path
         id="path94"
         style="fill:#1d2a30;fill-opacity:1;fill-rule:nonzero;stroke:none"
         d="m 3160.37,136.301 c 10,4.597 20.75,7.328 31.73,8.07 0,0 37.98,22.348 75.62,109.188 l 42.33,0.25 c 14.66,-0.168 27.65,-9.469 32.52,-23.289 0.7,-1.891 1.1,-3.86 1.2,-5.86 -0.43,-10.238 -1.51,-20.422 -3.25,-30.512 -3.81,-31.656 -24.74,-99.5894 -24.74,-99.5894 l -7.18,1.832 13.05,63.1604 c 4.33,21.469 -18.22,0.73 -28.68,-20.91 -10.45,-21.641 -26.5,-43.4105 -73.25,-32.731 -54.47,12.738 -76.43,20.59 -59.35,30.391" /><path
         id="path96"
         style="fill:#1d2a30;fill-opacity:1;fill-rule:nonzero;stroke:none"
         d="m 3343.77,229.43 c 8.01,20.531 18.2,57.16 18.2,57.16 l -90.68,12.68 c 0,0 0.01,-44.622 -16.8,-73.84 47.38,0.34 89.28,4 89.28,4" /><path
         id="path98"
         style="fill:#fab6b9;fill-opacity:1;fill-rule:nonzero;stroke:none"
         d="m 3717.51,1862.36 c 0,0 13.45,-587.57 34.21,-825.58 27.04,-310.518 -30.5,-785.311 -30.5,-785.311 l 63.74,-2.848 c 0,0 133.54,421.359 103.5,768.739 96.11,381.83 19.69,810.84 19.69,810.84 l -190.64,34.16" /><path
         id="path100"
         style="fill:#1d2a30;fill-opacity:1;fill-rule:nonzero;stroke:none"
         d="m 3622.02,116.961 c 9.44,5.66 19.84,9.531 30.68,11.449 0,0 35.34,26.34 63.37,116.738 l 42.06,4.813 c 14.59,1.418 28.51,-6.422 34.85,-19.641 0.89,-1.789 1.51,-3.718 1.82,-5.691 0.68,-10.219 0.7,-20.457 0.07,-30.68 -0.37,-31.89 -13.84,-101.6795 -13.84,-101.6795 l -7.33,1.0391 6.14,64.2034 c 1.99,21.808 -18.18,-1.242 -26.24,-23.891 -8.06,-22.633 -21.66,-46.0194 -69.29,-40.4491 -55.53,6.7773 -78.21,12.1991 -62.29,23.7891" /><path
         id="path102"
         style="fill:#1d2a30;fill-opacity:1;fill-rule:nonzero;stroke:none"
         d="m 3794.29,229.379 c 5.73,21.269 11.91,58.781 11.91,58.781 l -91.52,2.809 c 0,0 4.83,-44.36 -8.72,-75.231 47.07,5.473 88.33,13.641 88.33,13.641" /><path
         id="path104"
         style="fill:#1d2a30;fill-opacity:1;fill-rule:nonzero;stroke:none"
         d="m 3581.9,1949.54 -118.94,-822.23 c 0,0 387.26,-60.08 542.27,-24.94 0,0 38.02,474.76 -123.75,819.96 l -299.58,27.21" /><path
         id="path106"
         style="fill:#fab6b9;fill-opacity:1;fill-rule:nonzero;stroke:none"
         d="m 3223.98,2240.21 -103.45,102.21 c 0,0 -3.58,27.39 -13.58,35.01 -10.01,7.63 -80.98,33.37 -89.66,27.65 -8.67,-5.71 -20.75,-63.07 -8.6,-73.56 12.13,-10.48 76.67,-23.92 83.28,-22.79 l 111.91,-132.85 20.1,64.33" /><path
         id="path108"
         style="fill:#4870c0;fill-opacity:1;fill-rule:nonzero;stroke:none"
         d="m 3594.39,2426.47 c -44.61,-23.66 -202.95,-245.01 -226.28,-256 -23.33,-10.99 -201.62,133.6 -201.62,133.6 l -30.04,-51.26 c 0,0 146.27,-206.66 228.97,-196.66 82.69,10 241.03,185 241.03,185 l -12.06,185.32" /><path
         id="path110"
         style="fill:#537bc6;fill-opacity:1;fill-rule:nonzero;stroke:none"
         d="m 3359.45,2055.8 c -83.56,0.02 -223,197.01 -223,197.01 l 30.04,51.26 c 0,0 165.48,-134.21 198.45,-134.2 1.25,0 2.32,0.2 3.17,0.6 23.25,10.95 180.47,230.67 225.77,255.73 -2.1,-1.5 -10.27,-10.8 -15.68,-66.58 -1.26,-13.4 -2.51,-29.76 -3.56,-49.5 -17.37,-23.79 -42.23,-70.48 -31.8,-133.61 10.69,10.2 20.52,19.91 29.08,28.54 0,-0.01 0,-0.03 0,-0.05 -19.71,-19.9 -46.1,-45.43 -74.45,-69.73 -10.5,-9 -21.28,-17.84 -32.08,-26.15 -20.4,-15.71 -40.88,-29.55 -59.88,-39.22 -14.48,-7.36 -28.08,-12.3 -40.09,-13.75 -1.96,-0.24 -3.94,-0.35 -5.97,-0.35" /><path
         id="path112"
         style="fill:#4870c0;fill-opacity:1;fill-rule:nonzero;stroke:none"
         d="m 3176.29,2298.65 -12.34,11.66 -32.5,-55 11.66,-22.5 33.18,65.84" /><path
         id="path114"
         style="fill:#4067ba;fill-opacity:1;fill-rule:nonzero;stroke:none"
         d="m 3542.84,2176.51 c -10.43,63.13 14.43,109.82 31.8,133.61 -1.49,-27.88 -2.58,-62.52 -2.72,-105.07 -8.56,-8.63 -18.39,-18.34 -29.08,-28.54" /><path
         id="path116"
         style="fill:#4870c0;fill-opacity:1;fill-rule:nonzero;stroke:none"
         d="m 3579.43,1957.92 c -12.5,220.16 -6.91,341.19 -1.23,401.7 6.25,64.48 16.19,66.85 16.19,66.85 0,0 69.89,6.82 130.68,6.34 47.06,-1.6 94.04,-6.53 140.35,-14.77 43.93,-7.29 87.21,-17.8 129.73,-31.34 -7.1,-20.27 -13.55,-39.49 -19.52,-57.58 -7.95,-23.86 -15.05,-46.02 -21.49,-66.66 -12.03,-38.64 -21.4,-72.06 -28.88,-101.99 -23.39,-92.61 -28.31,-151.89 -33.23,-229.54 0,0 76.92,-200.99 91.91,-348.49 l -254.99,-27.5 -35,147.5 -35,-152.5 -142.5,50 62.98,357.98" /><path
         id="path118"
         style="fill:#537bc6;fill-opacity:1;fill-rule:nonzero;stroke:none"
         d="m 3658.95,1549.94 -142.5,50 62.98,357.98 v 0 c -5.54,97.61 -7.53,175.73 -7.53,237.74 0.01,77.84 3.14,130.27 6.3,163.96 6.25,64.48 16.19,66.85 16.19,66.85 0,0 65.28,6.37 124.54,6.37 2.06,0 4.1,-0.01 6.14,-0.03 2.12,-0.07 4.23,-0.15 6.34,-0.23 -18.74,-12.52 -44.87,-37.95 -44.86,-82.4 0.01,-2.45 0.09,-4.96 0.25,-7.53 l 11.96,5.5 c -0.92,-16.69 -1.77,-39.07 -1.77,-64.79 0,-14.41 0.26,-29.86 0.93,-45.97 h -108.45 c -6.71,0 -11.94,-5.47 -11.94,-11.91 0,-0.7 0.06,-1.41 0.18,-2.12 l 7.72,-43.25 c -0.2,-6.07 -0.29,-12.39 -0.3,-18.91 -0.01,-71.05 10.75,-163.57 10.75,-163.57 l 22.19,-0.64 24.13,-135.31 c 1.43,-8.02 8.29,-13.95 16.43,-14.18 l 251.67,-7.45 c 0.12,0 0.24,-0.01 0.36,-0.01 4.76,0 8.78,2.77 10.71,6.69 23.43,-71.99 53.74,-177.41 62.57,-264.29 l -254.99,-27.5 -35,147.5 -35,-152.5" /><path
         id="path120"
         style="fill:#537bc6;fill-opacity:1;fill-rule:nonzero;stroke:none"
         d="m 3895.62,1981.86 -4.95,23.62 6.58,-5.04 c -0.58,-6.17 -1.12,-12.35 -1.63,-18.58" /><path
         id="path122"
         style="fill:#537bc6;fill-opacity:1;fill-rule:nonzero;stroke:none"
         d="m 3903.21,2050.89 -1.08,0.68 c 0,0 -9.39,25.97 -20.8,31.26 -1.48,0.68 -4.02,1.45 -7.35,2.24 l -29.07,138.64 c -1.67,7.98 -8.69,13.68 -16.84,13.68 h -79.98 c 12.38,29.82 27.32,61.29 44.22,88.34 l 7.71,-8.79 c 0,0 54.12,63.06 59.76,82.08 0.46,1.56 0.68,3.13 0.68,4.7 0.02,5.64 -2.68,11.25 -6.34,16.26 3.77,-0.62 7.53,-1.27 11.3,-1.94 43.93,-7.29 87.21,-17.8 129.73,-31.34 v 0 c 0,0 -57.97,-84.21 -68.3,-170.85 -0.75,0.43 -1.49,0.63 -2.19,0.63 -5.11,0 -8.84,-9.92 -8.84,-9.92 0,0 -9.99,-41.2 -2.89,-99.84 -4.02,-19.69 -7.17,-38.06 -9.72,-55.83" /><path
         id="path124"
         style="fill:#537bc6;fill-opacity:1;fill-rule:nonzero;stroke:none"
         d="m 3916.2,2122.14 c 2.64,12.2 5.62,24.97 9.04,38.38 0.64,2.52 1.3,5.08 1.97,7.66 -0.67,-2.6 -1.32,-5.17 -1.95,-7.71 -3.39,-13.43 -6.39,-26.15 -9.06,-38.33" /><path
         id="path126"
         style="fill:#c5c4c2;fill-opacity:1;fill-rule:nonzero;stroke:none"
         d="m 3912.94,2106.62 c 0,0.03 0,0.07 -0.01,0.1 1.03,5.05 2.12,10.18 3.27,15.42 -1.15,-5.28 -2.23,-10.45 -3.26,-15.52 m 14.27,61.56 c 0.03,0.11 0.06,0.23 0.09,0.35 v 0 c -0.03,-0.12 -0.06,-0.24 -0.09,-0.35" /><path
         id="path128"
         style="fill:#4067ba;fill-opacity:1;fill-rule:nonzero;stroke:none"
         d="m 3912.93,2106.72 c -7.1,58.64 2.89,99.84 2.89,99.84 0,0 3.73,9.92 8.84,9.92 0.7,0 1.44,-0.2 2.19,-0.63 -1.01,-8.5 -1.57,-17.03 -1.56,-25.51 0,-6.85 0.37,-13.66 1.16,-20.4 l 0.85,-1.41 c -0.03,-0.12 -0.06,-0.24 -0.09,-0.35 -0.67,-2.58 -1.33,-5.14 -1.97,-7.66 -3.42,-13.41 -6.4,-26.18 -9.04,-38.38 -1.15,-5.24 -2.24,-10.37 -3.27,-15.42" /><path
         id="path130"
         style="fill:#fab6b9;fill-opacity:1;fill-rule:nonzero;stroke:none"
         d="m 3728.62,2419.41 c 2.76,1.51 6.04,2.83 9.52,4.07 7.21,5.7 15.96,19.41 15.54,52.75 -0.15,10.86 -1.18,23.72 -3.62,39.04 l 92.72,17.31 c 0,0 -31.61,-62.39 -5.23,-108.73 9.07,-4.04 14.48,-9.74 13.5,-17.29 -6.93,-53.59 -122.1,-105.37 -122.1,-105.37 0,0 -56.25,87.5 -0.33,118.22" /><path
         id="path132"
         style="fill:#182124;fill-opacity:1;fill-rule:nonzero;stroke:none"
         d="m 3753.68,2476.23 c -0.15,10.86 -1.19,23.72 -3.62,39.04 v 0 c 2.44,-15.32 3.47,-28.18 3.62,-39.04 v 0 0 m 88.84,55.81 c 0.17,0.36 0.26,0.54 0.26,0.54 v 0 c 0,0 -0.08,-0.19 -0.26,-0.54" /><path
         id="path134"
         style="fill:#ca9091;fill-opacity:1;fill-rule:nonzero;stroke:none"
         d="m 3753.68,2476.23 v 0 c -0.15,10.86 -1.18,23.72 -3.62,39.04 l 92.72,17.31 c 0,0 -0.09,-0.18 -0.26,-0.54 -2.9,-5.76 -29.81,-55.81 -88.84,-55.81" /><path
         id="path136"
         style="fill:#fab6b9;fill-opacity:1;fill-rule:nonzero;stroke:none"
         d="m 3801.32,2774.53 c -80.6,4.41 -108.91,-37.32 -119.36,-120.06 -13.07,-103.39 5.91,-178.39 107.9,-161.74 138.51,22.6 145.31,274.47 11.46,281.8" /><path
         id="path138"
         style="fill:#ed6a75;fill-opacity:1;fill-rule:nonzero;stroke:none"
         d="m 3734.3,2656.13 c 0,0 -12.32,-20.45 -25.28,-32.14 0,0 6.3,-11.35 20.75,-10.29 l 4.53,42.43" /><path
         id="path140"
         style="fill:#1d2a30;fill-opacity:1;fill-rule:nonzero;stroke:none"
         d="m 3784,2660.02 c -0.52,-6.62 2.64,-12.26 7.04,-12.6 4.41,-0.35 8.4,4.73 8.92,11.35 0.52,6.61 -2.63,12.25 -7.04,12.59 -4.41,0.34 -8.4,-4.73 -8.92,-11.34" /><path
         id="path142"
         style="fill:#1d2a30;fill-opacity:1;fill-rule:nonzero;stroke:none"
         d="m 3794.73,2670.9 -13.94,6.77 c 0,0 6.22,-12.66 13.94,-6.77" /><path
         id="path144"
         style="fill:#1d2a30;fill-opacity:1;fill-rule:nonzero;stroke:none"
         d="m 3701.9,2667.83 c -0.51,-6.62 2.64,-12.26 7.05,-12.6 4.41,-0.35 8.4,4.73 8.92,11.34 0.51,6.62 -2.64,12.26 -7.04,12.6 -4.41,0.35 -8.41,-4.73 -8.93,-11.34" /><path
         id="path146"
         style="fill:#1d2a30;fill-opacity:1;fill-rule:nonzero;stroke:none"
         d="m 3712.64,2678.71 -13.94,6.76 c 0,0 6.21,-12.66 13.94,-6.76" /><path
         id="path148"
         style="fill:#1d2a30;fill-opacity:1;fill-rule:nonzero;stroke:none"
         d="m 3788.11,2712.21 0.4,0.02 1.31,0.02 c 2.66,0.01 8.07,-0.27 13.77,-2.05 5.72,-1.77 11.63,-4.97 15.78,-10.69 1.12,-1.53 3.26,-1.87 4.79,-0.76 1.54,1.12 1.88,3.26 0.76,4.8 -5.29,7.28 -12.66,11.16 -19.3,13.21 -6.66,2.06 -12.69,2.35 -15.8,2.36 -1.34,0 -2.15,-0.06 -2.22,-0.07 -1.89,-0.14 -3.31,-1.79 -3.17,-3.68 0.15,-1.88 1.79,-3.3 3.68,-3.16" /><path
         id="path150"
         style="fill:#1d2a30;fill-opacity:1;fill-rule:nonzero;stroke:none"
         d="m 3730.82,2725.39 c -0.31,0.13 -4.61,1.95 -11.57,1.96 -6.27,0 -14.69,-1.52 -24.02,-7.01 -1.63,-0.97 -2.18,-3.07 -1.21,-4.7 0.96,-1.63 3.06,-2.18 4.69,-1.22 8.26,4.85 15.35,6.06 20.54,6.06 2.88,0 5.16,-0.38 6.69,-0.74 l 1.71,-0.48 0.39,-0.14 0.07,-0.03 0.34,0.83 -0.36,-0.83 h 0.02 l 0.34,0.83 -0.36,-0.83 c 1.74,-0.75 3.76,0.05 4.52,1.79 0.75,1.73 -0.05,3.76 -1.79,4.51" /><path
         id="path152"
         style="fill:#1d2a30;fill-opacity:1;fill-rule:nonzero;stroke:none"
         d="m 3881.96,2633.86 c 0,0 -34.05,68.28 -25.54,119.1 0,0 -156.16,73.99 -172.92,-87.7 0,0 -7.72,144.82 131.01,140.44 138.51,-4.38 127.04,-207.06 52.17,-263.54 0,0 36.33,49 15.28,91.7" /><path
         id="path154"
         style="fill:#fab6b9;fill-opacity:1;fill-rule:nonzero;stroke:none"
         d="m 3867.87,2617.56 c 1.25,12.95 15.84,34.18 39.83,30.23 24.83,-4.09 33.92,-56.02 -28.88,-64.95 -9.01,-1.28 -13.56,7.71 -10.95,34.72" /><path
         id="path156"
         style="fill:#1d2a30;fill-opacity:1;fill-rule:nonzero;stroke:none"
         d="m 3790.19,2597.29 -0.14,-0.15 c -1.74,-1.83 -18.23,-17.66 -41.13,-17.57 l -2.32,0.05 c -1.89,0.09 -3.5,-1.38 -3.58,-3.27 -0.09,-1.9 1.38,-3.5 3.27,-3.59 l 2.63,-0.06 c 27.87,0.11 45.99,19.66 46.28,19.9 1.29,1.38 1.22,3.55 -0.16,4.85 -1.38,1.29 -3.55,1.22 -4.85,-0.16" /><path
         id="path158"
         style="fill:#1d2a30;fill-opacity:1;fill-rule:nonzero;stroke:none"
         d="m 3857.28,2756.28 c -0.18,0.04 -22.57,5.85 -52.19,5.86 -26.71,-0.01 -59.4,-4.71 -86.87,-23.09 -27.51,-18.35 -49.33,-50.54 -54.02,-103.87 -0.17,-1.88 1.23,-3.55 3.11,-3.72 1.89,-0.17 3.56,1.23 3.72,3.11 4.67,51.77 25.27,81.49 51,98.78 25.77,17.28 57.13,21.94 83.06,21.93 14.36,0 27.02,-1.42 36.07,-2.84 4.53,-0.71 8.15,-1.41 10.62,-1.94 2.48,-0.53 3.77,-0.87 3.77,-0.87 1.84,-0.47 3.71,0.63 4.19,2.46 0.47,1.84 -0.63,3.71 -2.46,4.19" /><path
         id="path160"
         style="fill:#4870c0;fill-opacity:1;fill-rule:nonzero;stroke:none"
         d="m 3701.04,2379.74 c 0,0 -13.35,-132.41 8.41,-252.88 0,0 51.43,186.12 123.63,249.42 l -83.02,-11.87 -49.02,15.33" /><path
         id="path162"
         style="fill:#a1bce6;fill-opacity:1;fill-rule:nonzero;stroke:none"
         d="m 3748.09,2237.39 h -50.17 c -0.67,16.11 -0.93,31.56 -0.93,45.97 0,25.72 0.85,48.1 1.77,64.79 l 41.79,19.23 2.15,-0.67 v -24.06 l 11.86,22.4 2.91,0.42 34.84,-39.74 c -16.9,-27.05 -31.84,-58.52 -44.22,-88.34" /><path
         id="path164"
         style="fill:#4870c0;fill-opacity:1;fill-rule:nonzero;stroke:none"
         d="m 3834.26,2438.59 -84.2,-62.31 v 66.26 c 0,0 -68.11,-24.73 -63.26,-99.89 l 55.9,25.71 v -25.71 l 13.1,24.72 44.22,-50.43 c 0,0 54.12,63.06 59.76,82.08 5.64,19.02 -25.52,39.57 -25.52,39.57" /><path
         id="path166"
         style="fill:#c7d9f2;fill-opacity:1;fill-rule:nonzero;stroke:none"
         d="m 3800.02,2316.94 -7.71,8.79 -34.84,39.74 -1.67,1.9 -13.1,-24.72 v 25.71 l -2.15,-0.98 -41.79,-19.23 -11.96,-5.5 c -0.16,2.57 -0.24,5.08 -0.25,7.53 -0.02,69.29 63.51,92.36 63.51,92.36 v -66.26 l 84.2,62.31 c 0,0 26.25,-17.31 26.2,-34.87 0,-1.57 -0.22,-3.14 -0.68,-4.7 -5.64,-19.02 -59.76,-82.08 -59.76,-82.08" /><path
         id="path168"
         style="fill:#1d2a30;fill-opacity:1;fill-rule:nonzero;stroke:none"
         d="m 3922.33,1854.43 -77.42,369.28 c -1.67,7.98 -8.69,13.68 -16.84,13.68 h -238.6 c -7.43,0 -13.06,-6.72 -11.76,-14.03 l 64.49,-361.68 c 1.43,-8.02 8.29,-13.95 16.43,-14.18 l 251.67,-7.45 c 7.72,-0.22 13.62,6.83 12.03,14.38" /><path
         id="path170"
         style="fill:#304047;fill-opacity:1;fill-rule:nonzero;stroke:none"
         d="m 3910.66,1840.04 c -0.12,0 -0.24,0.01 -0.36,0.01 l -251.67,7.45 c -8.14,0.23 -15,6.16 -16.43,14.18 l -24.13,135.31 192.81,-5.6 c 0,0 0,8.18 0.06,21.56 11.77,-1.58 27.33,-2.2 40.88,-2.2 14.77,0 27.16,0.73 29.68,1.76 l 9.17,-7.03 31.66,-151.05 c 0.18,-0.84 0.26,-1.68 0.26,-2.5 -0.01,-6.42 -5.25,-11.89 -11.93,-11.89 m -36.68,245.03 c -14.02,3.34 -41.91,7.19 -62.29,8 1.02,67.71 3.33,144.32 8.56,144.32 v 0 0 h -224.37 c -6.57,-8.64 -9.57,-30.31 -10.45,-57.28 l -7.72,43.25 c -0.12,0.71 -0.18,1.42 -0.18,2.12 0,6.44 5.23,11.91 11.94,11.91 h 238.6 c 8.15,0 15.17,-5.7 16.84,-13.68 l 29.07,-138.64" /><path
         id="path172"
         style="fill:#fab6b9;fill-opacity:1;fill-rule:nonzero;stroke:none"
         d="m 4025.16,1974.03 -123.03,77.54 c 0,0 -9.39,25.97 -20.8,31.26 -11.41,5.29 -86.27,15.15 -93.5,7.7 -7.24,-7.45 -6.69,-66.06 7.42,-73.69 14.12,-7.62 80.04,-6.85 86.25,-4.33 l 137.89,-105.64 5.77,67.16" /><path
         id="path174"
         style="fill:#4870c0;fill-opacity:1;fill-rule:nonzero;stroke:none"
         d="m 3995.15,2386.7 c 0,0 -80.37,-116.76 -68.7,-216.76 l 106.66,-176.67 -71.66,36.67 -32.5,-61.25 c 0,0 82.5,-127.09 187.5,-97.09 105,30 -121.3,515.1 -121.3,515.1" /><path
         id="path176"
         style="fill:#537bc6;fill-opacity:1;fill-rule:nonzero;stroke:none"
         d="m 4084.02,1867.02 c -89.07,0 -155.07,101.67 -155.07,101.67 l 32.5,61.25 71.66,-36.67 -105.81,175.26 -0.85,1.41 c -0.79,6.74 -1.16,13.55 -1.16,20.4 -0.05,94.81 69.86,196.36 69.86,196.36 0,0 149.03,-319.47 149.09,-455.93 0.01,-7.96 -0.5,-15.3 -1.57,-21.92 -3.19,-19.72 -11.41,-33.01 -26.22,-37.25 -11.09,-3.17 -21.92,-4.58 -32.43,-4.58" /><path
         id="path178"
         style="fill:#4870c0;fill-opacity:1;fill-rule:nonzero;stroke:none"
         d="m 3968.95,2033.27 -40.84,-75.83 -9.16,21.67 32.5,61.66 17.5,-7.5" /><path
         id="path180"
         style="fill:#ffffff;fill-opacity:1;fill-rule:nonzero;stroke:none"
         d="m 3820.25,2237.39 c -9.37,0 -9.37,-246 -9.37,-246 l -215,6.24 c 0,0 -24.18,207.96 0,239.76 h 224.37" /><path
         id="path182"
         style="fill:#e8e8e7;fill-opacity:1;fill-rule:nonzero;stroke:none"
         d="m 3810.88,1991.39 -215,6.24 c 0,0 -10.76,92.52 -10.75,163.57 0.01,35.48 2.7,65.6 10.75,76.19 h 224.37 c -5.23,0 -7.54,-76.61 -8.56,-144.32 -0.47,-31.5 -0.67,-61.07 -0.75,-80.12 -0.06,-13.38 -0.06,-21.56 -0.06,-21.56" /><path
         id="path184"
         style="fill:#1d2a30;fill-opacity:1;fill-rule:nonzero;stroke:none"
         d="m 2932,2432.29 203.28,-85.49 c 4.65,-1.96 6.8,-7.35 4.75,-11.96 -1.99,-4.51 -7.23,-6.59 -11.77,-4.66 l -204.58,86.72 -1.85,1.05 -23.86,17.67 31.3,-2.66 c 0.94,-0.08 1.86,-0.31 2.73,-0.67" /><path
         id="path186"
         style="fill:#f47272;fill-opacity:1;fill-rule:nonzero;stroke:none"
         d="m 2257.5,2010.89 -197.8,-17.6 -79.2,44.7 c 0,0 -254,141.5 -320.1,186.21 -20.1,13.69 -38.7,43.5 -54.8,78.5 -13.6,29.4 -25.4,62.39 -34.8,92.29 -4.5,14.1 -8.5,27.6 -11.9,39.61 -7.6,26.69 -12.3,46.69 -13.6,52.1 v 0.09 l -0.3,1.3 v 0.1 l 0.5,0.2 62.6,19.9 52.3,16.6 c 0,0 2.4,-12.4 6.5,-31.3 1.1,-5.1 2.3,-10.7 3.6,-16.69 1.1,-4.8 2.2,-9.91 3.4,-15.2 13.2,-58.21 33.5,-137.61 48.2,-150.61 23.7,-20.89 321.7,-223.99 332.3,-229.3 10.5,-5.29 105.5,0 105.5,0 l 97.6,-70.9" /><path
         id="path188"
         style="fill:#4870c0;fill-opacity:1;fill-rule:nonzero;stroke:none"
         d="m 1544.13,2768.84 c 90.92,1.33 148.85,-280.63 148.85,-280.63 l -119.9,-60.24 c 0,0 -54.07,85.77 -51.43,194.2 2.64,108.44 22.48,146.67 22.48,146.67" /><path
         id="path190"
         style="fill:#a1bce6;fill-opacity:1;fill-rule:nonzero;stroke:none"
         d="m 1622.5,2469.29 c -4.3,13.6 -9.2,26.7 -14.4,39 -9.78,23.43 -20.49,43.98 -29.33,59.51 -7.65,72 -18.76,141.45 -34.67,200.99 0.02,0.03 0.03,0.05 0.03,0.05 0.21,0 0.43,0 0.64,0 76.8,0 129.93,-201.82 144.31,-263.16 l -22.18,-12.09 -44.4,-24.3" /><path
         id="path192"
         style="fill:#4870c0;fill-opacity:1;fill-rule:nonzero;stroke:none"
         d="m 1706.3,2482.7 -32.4,-21 -42.3,-27.41 -60.8,-39.3 -10.9,-7.1 -13.2,40.1 12.2,6.61 8,4.4 55.6,30.29 44.4,24.3 22.2,12.1 3.9,2.1 13.3,-25.09" /><path
         id="path194"
         style="fill:#cd5a58;fill-opacity:1;fill-rule:nonzero;stroke:none"
         d="m 1605.6,2302.7 v 0 c -4.28,9.24 -8.38,18.85 -12.28,28.6 -0.62,24.87 -1.5,50.5 -2.71,76.5 l 40.99,26.49 v 0 c 3.1,-15.3 5.1,-30.9 5.4,-46.4 0.7,-34.09 -12.9,-62.5 -31.4,-85.19" /><path
         id="path196"
         style="fill:#7a95d4;fill-opacity:1;fill-rule:nonzero;stroke:none"
         d="m 1588.34,2450.68 c -2.33,38.99 -5.45,78.43 -9.57,117.12 8.84,-15.53 19.55,-36.08 29.33,-59.51 5.2,-12.3 10.1,-25.4 14.4,-39 l -34.16,-18.61" /><path
         id="path198"
         style="fill:#395eb4;fill-opacity:1;fill-rule:nonzero;stroke:none"
         d="m 1590.61,2407.8 c -0.65,14.19 -1.41,28.51 -2.27,42.88 l 34.16,18.61 v 0 c 1.5,-4.69 2.9,-9.5 4.2,-14.4 1.9,-6.8 3.5,-13.7 4.9,-20.6 l -40.99,-26.49" /><path
         id="path200"
         style="fill:#f47272;fill-opacity:1;fill-rule:nonzero;stroke:none"
         d="m 1530.48,182 83.68,-8.84 15.7,180.461 -83.67,8.848 L 1530.48,182" /><path
         id="path202"
         style="fill:#f47272;fill-opacity:1;fill-rule:nonzero;stroke:none"
         d="m 1112.97,188.102 h 81.07 l 6.7,187.82 h -81.17 l -6.6,-187.82" /><path
         id="path204"
         style="fill:#1d2a30;fill-opacity:1;fill-rule:nonzero;stroke:none"
         d="m 1205.28,197.48 h -98.5 c -3.32,-0.011 -6.19,-2.32 -6.91,-5.57 l -15.99,-72.191 c -1.37,-6.469 2.77,-12.809 9.23,-14.18 l 2.63,-0.269 c 31.87,0.519 55.08,2.48 95.1,2.48 24.65,0 99.02,-2.578 133.06,-2.578 34.03,0 38.47,33.629 24.54,36.719 -62.5,13.621 -109.53,32.488 -129.54,50.441 -3.71,3.398 -8.59,5.246 -13.62,5.148" /><path
         id="path206"
         style="fill:#4870c0;fill-opacity:1;fill-rule:nonzero;stroke:none"
         d="m 1216.42,188.93 c 9.46,-3.211 19.79,-2.688 28.88,1.441 1.94,1.738 2.9,4.32 2.58,6.91 -0.11,1.547 -0.72,2.27 -1.24,2.27 l -2.47,0.508 c -9.88,-1.899 -19.3,-5.68 -27.75,-11.129 z m -5.57,-2.688 -1.45,1.649 0.93,1.859 c 2.89,1.852 29.09,17.949 38.06,13.309 2.07,-0.977 3.36,-3.09 3.3,-5.368 0.55,-3.902 -0.98,-7.812 -4.02,-10.32 -4.57,-3.101 -10.06,-4.562 -15.57,-4.121 -7.17,0.211 -14.3,1.211 -21.25,2.992" /><path
         id="path208"
         style="fill:#4870c0;fill-opacity:1;fill-rule:nonzero;stroke:none"
         d="m 1223.33,217.391 c -5.7,-7.282 -9.05,-16.141 -9.59,-25.379 8.35,6.297 18.67,19.808 17.64,25.07 -0.11,0.52 -0.32,1.957 -2.79,1.957 h -0.93 c -1.59,-0.008 -3.13,-0.59 -4.33,-1.648 z m -13,-31.559 -0.93,1.746 c 0.11,1.141 2.07,24.453 11.45,32.082 2.24,1.961 5.21,2.86 8.15,2.481 3.01,0 5.6,-2.11 6.19,-5.059 1.65,-8.562 -14.54,-26.41 -22.9,-30.953 h -0.92 l -1.04,-0.297" /><path
         id="path210"
         style="fill:#1d2a30;fill-opacity:1;fill-rule:nonzero;stroke:none"
         d="m 1623.01,200.059 h -98.5 c -3.32,-0.008 -6.19,-2.317 -6.91,-5.571 l -15.99,-72.187 c -1.37,-6.469 2.77,-12.821 9.23,-14.18 l 2.63,-0.269 c 31.87,0.519 55.08,2.48 95.1,2.48 24.65,0 99.02,-2.57 133.06,-2.57 34.03,0 38.47,33.617 24.54,36.699 -62.5,13.629 -109.53,32.5 -129.54,50.437 -3.72,3.411 -8.59,5.262 -13.62,5.161" /><path
         id="path212"
         style="fill:#4870c0;fill-opacity:1;fill-rule:nonzero;stroke:none"
         d="m 1634.15,191.5 c 9.46,-3.199 19.78,-2.68 28.88,1.449 1.94,1.742 2.9,4.321 2.58,6.903 -0.11,1.558 -0.72,2.277 -1.24,2.277 l -2.48,0.512 c -9.87,-1.911 -19.29,-5.692 -27.74,-11.141 z m -5.57,-2.68 -1.45,1.649 0.94,1.863 c 2.88,1.848 29.08,17.938 38.05,13.309 2.07,-0.993 3.36,-3.09 3.3,-5.379 0.55,-3.891 -0.98,-7.801 -4.02,-10.313 -4.57,-3.097 -10.06,-4.558 -15.57,-4.117 -7.17,0.207 -14.3,1.207 -21.25,2.988" /><path
         id="path214"
         style="fill:#4870c0;fill-opacity:1;fill-rule:nonzero;stroke:none"
         d="m 1641.06,219.969 c -5.7,-7.278 -9.05,-16.141 -9.6,-25.367 8.36,6.289 18.68,19.796 17.65,25.058 -0.11,0.52 -0.32,1.961 -2.79,1.961 h -0.93 c -1.6,-0.012 -3.13,-0.59 -4.33,-1.652 z m -12.99,-31.559 -0.94,1.762 c 0.11,1.129 2.07,24.437 11.45,32.066 2.24,1.961 5.21,2.864 8.15,2.481 3.01,0.011 5.6,-2.11 6.19,-5.059 1.65,-8.558 -14.54,-26.41 -22.9,-30.941 h -0.92 l -1.03,-0.309" /><path
         id="path216"
         style="fill:#cecdcc;fill-opacity:1;fill-rule:nonzero;stroke:none"
         d="m 1538.09,269.379 -0.07,0.012 1.91,21.828 0.06,-0.008 -1.9,-21.832" /><path
         id="path218"
         style="fill:#cd5a58;fill-opacity:1;fill-rule:nonzero;stroke:none"
         d="m 1621.69,260.551 -83.6,8.828 1.9,21.832 83.31,-12.391 -1.61,-18.269" /><path
         id="path220"
         style="fill:#cecdcc;fill-opacity:1;fill-rule:nonzero;stroke:none"
         d="m 1116.16,278.969 h -0.1 l 0.56,15.57 h 0.09 l -0.55,-15.57" /><path
         id="path222"
         style="fill:#cd5a58;fill-opacity:1;fill-rule:nonzero;stroke:none"
         d="m 1197.24,278.969 h -81.08 l 0.55,15.57 h 81.09 l -0.56,-15.57" /><path
         id="path224"
         style="fill:#4870c0;fill-opacity:1;fill-rule:nonzero;stroke:none"
         d="m 1153.04,2023.39 h 430.36 c 40.92,-223.44 169,-1014.13 77.1,-1718.652 l -145.69,18.063 c 0,0 13.49,935.279 -115.14,1281.039 -14.8,-185.04 -32.37,-381.94 -47.62,-486.7 -37.44,-257.859 -117.58,-821.402 -117.58,-821.402 h -148.32 c 0,0 30.32,539.41 44.35,792.842 15.33,275.12 21.95,878.31 22.54,934.81" /><path
         id="path226"
         style="fill:#395eb4;fill-opacity:1;fill-rule:nonzero;stroke:none"
         d="m 1447.77,1417.64 c -13.3,71.58 -29.09,135.21 -48.06,186.17 l 11.96,153.13 c 0,0 48.13,-174.64 36.1,-339.3" /><path
         id="path228"
         style="fill:#4870c0;fill-opacity:1;fill-rule:nonzero;stroke:none"
         d="m 1677.17,270.801 -180.32,26.828 5.51,49.93 187.58,-24.618 -12.77,-52.14" /><path
         id="path230"
         style="fill:#b4caec;fill-opacity:1;fill-rule:nonzero;stroke:none"
         d="m 1668.49,272.09 -45.19,6.73 -83.31,12.391 -43.14,6.418 5.51,49.93 58.04,-7.618 c 5.14,-6.621 13.18,-10.89 22.2,-10.89 h 60.76 l 4.53,-0.59 20.6,-56.371" /><path
         id="path232"
         style="fill:#4870c0;fill-opacity:1;fill-rule:nonzero;stroke:none"
         d="m 1252.31,294.539 h -174.93 v 52.301 l 181.54,3.402 -6.61,-55.703" /><path
         id="path234"
         style="fill:#b4caec;fill-opacity:1;fill-rule:nonzero;stroke:none"
         d="m 1252.31,294.539 h -174.93 v 52.301 l 181.54,3.402 -6.61,-55.703" /><path
         id="path236"
         style="fill:#1d2a30;fill-opacity:1;fill-rule:nonzero;stroke:none"
         d="m 1152.17,1948.63 -0.33,62.31 438.53,27.05 3.09,-60.35 -441.29,-29.01" /><path
         id="path238"
         style="fill:#4870c0;fill-opacity:1;fill-rule:nonzero;stroke:none"
         d="m 1243.41,1935.44 h 19.7813 v 91.2969 H 1243.41 Z" /><path
         id="path240"
         style="fill:#4870c0;fill-opacity:1;fill-rule:nonzero;stroke:none"
         d="m 1566.43,2057.19 6.65,-91.06 -19.73,-1.44 -6.65,91.06 19.73,1.44" /><path
         id="path242"
         style="fill:#4870c0;fill-opacity:1;fill-rule:nonzero;stroke:none"
         d="m 1590.4,2037.99 -438.6,-32.7 c 0.5,38.4 -1,81.2 -3.9,126.41 -5.4,83.5 -15.7,174.89 -27.2,260.59 -24.4,182.11 -54.3,338.41 -54.3,338.41 204,51.5 477.7,38.09 477.7,38.09 71.1,-266.09 46.3,-730.8 46.3,-730.8" /><path
         id="path244"
         style="fill:#b4caec;fill-opacity:1;fill-rule:nonzero;stroke:none"
         d="m 1151.8,2005.29 c 0.06,4.95 0.09,9.98 0.09,15.07 0,34.41 -1.46,71.96 -3.99,111.34 14.98,-10.36 40.63,-16.32 67.34,-16.32 20.82,0 42.28,3.62 59.85,11.62 74.86,-32.94 161.04,-68.48 224.71,-94.29 -0.54,-0.51 -1.06,-1.04 -1.56,-1.59 l -235.05,-17.52 -19.78,-1.48 -91.54,-6.82 -0.07,-0.01 m 440.76,87.89 c -105.18,58 -383.34,212.55 -399.76,233.91 -10.64,13.84 -21.4,57.55 -29.21,95.95 l 19.29,4.93 v 0 c 0,0 -37.74,303.29 -110.87,303.29 -1.84,0 -3.71,-0.19 -5.58,-0.58 -0.01,0 -0.02,-0.01 -0.02,-0.01 -0.01,0.02 -0.01,0.03 -0.01,0.03 40.32,10.17 83.34,17.81 126.45,23.53 l -0.05,-0.05 100.67,-110.6 50.99,76.48 72.62,-43.3 v 93.2 c 16.02,0.29 30.98,0.4 44.6,0.4 50.36,0 82.42,-1.57 82.42,-1.57 41.87,-156.69 50.48,-382.26 50.49,-541.25 0,-54.38 -1,-100.98 -2.03,-134.36" /><path
         id="path246"
         style="fill:#f47272;fill-opacity:1;fill-rule:nonzero;stroke:none"
         d="m 1222.1,2758.29 c 39.5,-35.9 136.28,-22.63 136.28,-22.63 0,0 60.41,16.54 47.72,35.41 -35.58,5.88 -52.81,22.49 -59.92,43.74 -4.13,12.38 -4.75,26.3 -3.61,40.64 0.51,7.53 1.64,15.16 2.99,22.69 l -119.65,88.6 c 15.68,-58.48 34.87,-166.06 -3.81,-208.45" /><path
         id="path248"
         style="fill:#cd5a58;fill-opacity:1;fill-rule:nonzero;stroke:none"
         d="m 1346.18,2814.81 c -28.88,4.02 -87.88,23.82 -92.63,95.61 l 89.02,-54.97 c -0.33,-4.09 -0.51,-8.15 -0.51,-12.14 0.01,-10.01 1.17,-19.65 4.12,-28.5" /><path
         id="path250"
         style="fill:#1d2a30;fill-opacity:1;fill-rule:nonzero;stroke:none"
         d="m 1460,3137.34 c 29.06,-27.64 17,-111.74 -42.31,-154.71 -59.31,-42.99 -59.31,165.02 -59.31,165.02 0,0 83.12,7.29 101.62,-10.31" /><path
         id="path252"
         style="fill:#f47272;fill-opacity:1;fill-rule:nonzero;stroke:none"
         d="m 1245.51,2893.81 c 28.77,-41.35 75.71,-52.18 116.45,-39.29 26.19,8.25 49.82,26.41 64.46,52.5 1.96,3.4 3.71,7.02 5.36,10.73 29.19,68.28 38.47,187.71 -33.72,232.48 -51.26,32.29 -119.13,16.91 -151.42,-34.45 -9.28,-14.55 -14.85,-31.15 -16.5,-48.37 -8.87,-79.84 -17.85,-126.36 15.37,-173.6" /><path
         id="path254"
         style="fill:#1d2a30;fill-opacity:1;fill-rule:nonzero;stroke:none"
         d="m 1346.52,3024.75 c -1.54,-6.31 1.37,-12.22 5.65,-12.95 4.29,-0.72 8.51,3.98 9.65,10.39 1.13,6.42 -1.48,12.26 -5.66,12.95 -4.18,0.7 -8.48,-3.87 -9.64,-10.39" /><path
         id="path256"
         style="fill:#1d2a30;fill-opacity:1;fill-rule:nonzero;stroke:none"
         d="m 1419.39,3012.31 c -1.54,-6.31 1.47,-12.25 5.66,-12.95 4.18,-0.7 8.5,3.98 9.64,10.39 1.14,6.41 -1.48,12.25 -5.66,12.95 -4.18,0.7 -8.58,-4.28 -9.64,-10.39" /><path
         id="path258"
         style="fill:#f03e4c;fill-opacity:1;fill-rule:nonzero;stroke:none"
         d="m 1395.69,3013.09 c 4.31,-21.02 11.51,-41.35 21.39,-60.41 -10.07,-4.88 -21.77,-5.05 -31.97,-0.49 l 10.58,60.9" /><path
         id="path260"
         style="fill:#1d2a30;fill-opacity:1;fill-rule:nonzero;stroke:none"
         d="m 1327.94,3052.21 c 1.37,-0.44 2.86,-0.12 3.92,0.85 6.96,6.85 16.74,10.01 26.39,8.54 2.05,-0.51 4.12,0.74 4.62,2.79 0.5,2.05 -0.75,4.11 -2.79,4.62 l -0.02,0.01 c -12.15,2.17 -24.61,-1.68 -33.41,-10.34 -1.58,-1.4 -1.73,-3.81 -0.33,-5.39 l 0.06,-0.07 1.56,-1.01" /><path
         id="path262"
         style="fill:#1d2a30;fill-opacity:1;fill-rule:nonzero;stroke:none"
         d="m 1368.94,2920.6 v 0 c -19.21,0.35 -37.03,10.06 -47.76,25.99 -0.55,0.97 -0.23,2.21 0.72,2.79 0.91,0.58 2.12,0.31 2.71,-0.59 l 0.08,-0.14 c 10.22,-14.53 26.69,-23.4 44.45,-23.93 1.08,0.01 1.96,-0.86 1.97,-1.95 l -0.01,-0.22 c 0.01,-1.07 -0.87,-1.96 -1.95,-1.96 l -0.21,0.01" /><path
         id="path264"
         style="fill:#1d2a30;fill-opacity:1;fill-rule:nonzero;stroke:none"
         d="m 1455,3032.09 2.2,-0.54 c 2.03,0.56 3.22,2.66 2.67,4.69 l -0.02,0.08 c -3.19,11.97 -12,21.64 -23.62,25.92 -2.02,0.62 -4.15,-0.53 -4.77,-2.54 v -0.01 c -0.55,-2.02 0.57,-4.11 2.56,-4.76 9.08,-3.65 15.89,-11.38 18.39,-20.83 0.52,-1.02 1.47,-1.75 2.59,-2.01" /><path
         id="path266"
         style="fill:#1d2a30;fill-opacity:1;fill-rule:nonzero;stroke:none"
         d="m 1305.09,3156.25 v -35.67 c -12.27,-4.73 -20.81,-16.88 -17.19,-31.37 7.73,-30.95 -14.63,-74.75 -39.54,-90.26 0,0 0.86,12.9 -10.31,11.18 -11.17,-1.72 -16.34,-68.77 0.86,-103.15 0,0 -28.37,32.66 -37.82,104.87 -8.75,66.77 -4.23,120.98 12.13,144.4 h 91.87" /><path
         id="path268"
         style="fill:#f47272;fill-opacity:1;fill-rule:nonzero;stroke:none"
         d="m 1184.47,3008.4 c 5.73,-19.41 18.91,-35.76 36.67,-45.46 23.61,-12.69 41.25,7.05 39.65,32.41 -1.63,22.52 -15.64,56.95 -41.79,58.93 -26.15,1.98 -41.25,-21.96 -34.53,-45.88" /><path
         id="path270"
         style="fill:#1d2a30;fill-opacity:1;fill-rule:nonzero;stroke:none"
         d="m 1197.45,3095.96 c 0,0 -24.67,59.27 39.65,102.78 64.33,43.52 218.25,-7.18 228.98,-42.49 10.73,-35.31 -104.91,-99.78 -268.63,-60.29" /><path
         id="path272"
         style="fill:#4870c0;fill-opacity:1;fill-rule:nonzero;stroke:none"
         d="m 1237.21,2795.23 97.92,-53.59 13.36,73.16 68.59,-44.61 v -93.43 l -72.62,43.3 -50.99,-76.48 -100.67,110.6 44.41,41.05" /><path
         id="path274"
         style="fill:#ffffff;fill-opacity:1;fill-rule:nonzero;stroke:none"
         d="m 1463.55,1960.05 -76.99,-4.27 c -6.41,-0.35 -11.9,4.56 -12.25,10.97 l -2.88,52.08 c -0.36,6.41 4.55,11.89 10.96,12.25 l 76.99,4.26 c 6.41,0.36 11.9,-4.55 12.25,-10.96 l 2.89,-52.08 c 0.35,-6.42 -4.56,-11.9 -10.97,-12.25" /><path
         id="path276"
         style="fill:#a1bce6;fill-opacity:1;fill-rule:nonzero;stroke:none"
         d="m 1293.47,2643.58 -100.67,110.6 44.41,41.05 97.92,-53.59 13.36,73.16 68.59,-44.61 v -93.43 l -72.62,43.3 -50.99,-76.48" /><path
         id="path278"
         style="fill:#8aa1d3;fill-opacity:1;fill-rule:nonzero;stroke:none"
         d="m 1215.24,2115.38 c -26.71,0 -52.36,5.96 -67.34,16.32 v 0 c -1.23,18.94 -2.7,38.3 -4.39,57.91 29.5,-16.44 77.6,-38.85 131.58,-62.61 -17.57,-8 -39.03,-11.62 -59.85,-11.62" /><path
         id="path280"
         style="fill:#f47272;fill-opacity:1;fill-rule:nonzero;stroke:none"
         d="m 1151.84,2488.21 c 0,0 20.69,-134.75 40.96,-161.12 20.28,-26.37 439.62,-255.82 439.62,-255.82 l 145.05,10.55 66.75,-76.49 c 0,0 -193.34,-30.02 -214.44,-24.24 -21.1,5.78 -37.24,14.47 -37.24,14.47 0,0 -440.12,173.29 -477.05,212.85 -36.92,39.56 -79.12,242.87 -79.12,242.87 l 115.47,36.93" /><path
         id="path282"
         style="fill:#4870c0;fill-opacity:1;fill-rule:nonzero;stroke:none"
         d="m 1066.43,2730.68 c 76.78,16.02 116.45,-302.71 116.45,-302.71 l -157.05,-40.11 c 0,0 -53.9,323.1 40.6,342.82" /><path
         id="path284"
         style="fill:#a1bce6;fill-opacity:1;fill-rule:nonzero;stroke:none"
         d="m 1025.83,2387.86 c 0,0 -15.3,91.69 -15.31,180.36 -0.01,77.79 11.75,153.24 55.91,162.46 1.87,0.39 3.74,0.58 5.58,0.58 73.13,0 110.87,-303.29 110.87,-303.29 l -19.29,-4.93 -114.13,-29.15 -23.63,-6.03" /><path
         id="path286"
         style="fill:#4870c0;fill-opacity:1;fill-rule:nonzero;stroke:none"
         d="m 1016.59,2395.66 176.21,42.2 v -30.33 l -168.29,-48.79 -7.92,36.92" /><path
         id="path288"
         style="fill:#1d2a30;fill-opacity:1;fill-rule:nonzero;stroke:none"
         d="M 1650.44,405.27 V 1776.4 c 0,65.47 -20.08,129.37 -57.53,183.08 v 0 l -14.97,21.46 h 777.84 l 38.9,-55.79 c 30.43,-43.63 46.75,-95.55 46.75,-148.75 V 418.641 c 0,-16.559 13.43,-30 30,-30 16.57,0 30,13.441 30,30 V 1776.4 c 0,65.47 -20.08,129.37 -57.54,183.08 l -47.85,68.62 c -5.63,8.06 -14.78,12.84 -24.61,12.84 h -850.99 c -11.2,0 -21.42,-6.2 -26.6,-16.12 -5.18,-9.93 -4.41,-21.86 1.99,-31.04 l 47.86,-68.63 v 0.01 c 30.43,-43.64 46.75,-95.56 46.75,-148.76 V 405.27 c 0,-16.559 13.43,-30 30,-30 16.57,0 30,13.441 30,30" /><path
         id="path290"
         style="fill:#1d2a30;fill-opacity:1;fill-rule:nonzero;stroke:none"
         d="m 3516.63,193.262 c 0,48.648 -39.45,88.097 -88.09,88.097 -48.66,0 -88.1,-39.449 -88.1,-88.097 0,-48.653 39.44,-88.09 88.1,-88.09 48.64,0 88.09,39.437 88.09,88.09" /><path
         id="path292"
         style="fill:#758288;fill-opacity:1;fill-rule:nonzero;stroke:none"
         d="m 3428.54,149.219 c -24.34,0 -44.05,19.722 -44.05,44.043 0,2.187 0.16,4.328 0.46,6.429 l 1.5,-4.082 c 4.82,-13.23 17.4,-22.019 31.47,-22.019 18.51,0 33.51,15 33.51,33.512 v 23.796 c 12.68,-7.738 21.15,-21.699 21.15,-37.636 0,-24.321 -19.72,-44.043 -44.04,-44.043" /><path
         id="path294"
         style="fill:#1d2a30;fill-opacity:1;fill-rule:nonzero;stroke:none"
         d="m 3417.92,173.59 c -14.07,0 -26.65,8.789 -31.47,22.019 l -51.96,142.161 h 116.94 V 207.102 c 0,-18.512 -15,-33.512 -33.51,-33.512" /><path
         id="path296"
         style="fill:#45555c;fill-opacity:1;fill-rule:nonzero;stroke:none"
         d="m 3417.92,173.59 c -14.07,0 -26.65,8.789 -31.47,22.019 l -28.35,77.551 -5.38,14.731 -15.05,41.16 h 113.76 V 207.102 c 0,-18.512 -15,-33.512 -33.51,-33.512" /><path
         id="path298"
         style="fill:#1d2a30;fill-opacity:1;fill-rule:nonzero;stroke:none"
         d="m 2536.63,193.262 c 0,48.648 -39.45,88.097 -88.1,88.097 -48.65,0 -88.09,-39.449 -88.09,-88.097 0,-48.653 39.44,-88.09 88.09,-88.09 48.65,0 88.1,39.437 88.1,88.09" /><path
         id="path300"
         style="fill:#758288;fill-opacity:1;fill-rule:nonzero;stroke:none"
         d="m 2448.53,149.219 c -24.33,0 -44.04,19.722 -44.04,44.043 0,2.179 0.16,4.328 0.46,6.429 l 1.5,-4.082 c 4.82,-13.23 17.4,-22.019 31.47,-22.019 18.51,0 33.51,15 33.51,33.512 v 23.796 c 12.68,-7.738 21.15,-21.699 21.15,-37.636 0,-24.321 -19.72,-44.043 -44.05,-44.043" /><path
         id="path302"
         style="fill:#1d2a30;fill-opacity:1;fill-rule:nonzero;stroke:none"
         d="m 2437.92,173.59 c -14.07,0 -26.65,8.789 -31.47,22.019 l -51.96,142.161 h 116.94 V 207.102 c 0,-18.512 -15,-33.512 -33.51,-33.512" /><path
         id="path304"
         style="fill:#45555c;fill-opacity:1;fill-rule:nonzero;stroke:none"
         d="m 2437.92,173.59 c -14.07,0 -26.65,8.789 -31.47,22.019 l -48.78,133.442 h 113.76 V 207.102 c 0,-18.512 -15,-33.512 -33.51,-33.512" /><path
         id="path306"
         style="fill:#1d2a30;fill-opacity:1;fill-rule:nonzero;stroke:none"
         d="m 3580,440.352 v -83.204 c 0,-15.5 -12.6,-28.097 -28.1,-28.097 H 1582.6 c -15.5,0 -28.1,12.597 -28.1,28.097 v 83.204 H 3580" /><path
         id="path308"
         style="fill:#758288;fill-opacity:1;fill-rule:nonzero;stroke:none"
         d="m 3551.9,329.051 h -700 c 15.5,0 28.1,12.597 28.1,28.097 v 83.204 H 3324.29 3580 v -83.204 c 0,-15.5 -12.6,-28.097 -28.1,-28.097" /><path
         id="path310"
         style="fill:#929c9e;fill-opacity:1;fill-rule:nonzero;stroke:none"
         d="m 2851.9,329.051 h -110.47 v 8.719 h -116.94 l 3.18,-8.719 h -156.24 -113.76 -596.24 v 8.719 h -116.94 l 3.18,-8.719 h -4.31 -60.76 c -9.02,0 -17.06,4.269 -22.2,10.89 -3.7,4.758 -5.9,10.731 -5.9,17.207 v 83.204 h 243.89 432.71 160.7 432.71 55.49 v -83.204 c 0,-15.5 -12.6,-28.097 -28.1,-28.097" /><path
         id="path312"
         style="fill:#1d2a30;fill-opacity:1;fill-rule:nonzero;stroke:none"
         d="m 2806.63,193.262 c 0,48.648 -39.45,88.097 -88.1,88.097 -48.65,0 -88.09,-39.449 -88.09,-88.097 0,-48.653 39.44,-88.09 88.09,-88.09 48.65,0 88.1,39.437 88.1,88.09" /><path
         id="path314"
         style="fill:#a5adad;fill-opacity:1;fill-rule:nonzero;stroke:none"
         d="m 2718.53,149.219 c -24.33,0 -44.04,19.722 -44.04,44.043 0,2.179 0.16,4.328 0.46,6.429 l 1.5,-4.082 c 4.82,-13.23 17.4,-22.019 31.47,-22.019 18.51,0 33.51,15 33.51,33.512 v 23.796 c 12.68,-7.738 21.15,-21.699 21.15,-37.636 0,-24.321 -19.72,-44.043 -44.05,-44.043" /><path
         id="path316"
         style="fill:#1d2a30;fill-opacity:1;fill-rule:nonzero;stroke:none"
         d="m 2707.92,173.59 c -14.07,0 -26.65,8.789 -31.47,22.019 l -51.96,142.161 h 116.94 V 207.102 c 0,-18.512 -15,-33.512 -33.51,-33.512" /><path
         id="path318"
         style="fill:#758288;fill-opacity:1;fill-rule:nonzero;stroke:none"
         d="m 2707.92,173.59 c -14.07,0 -26.65,8.789 -31.47,22.019 l -51.96,142.161 h 116.94 v -8.719 -121.949 c 0,-18.512 -15,-33.512 -33.51,-33.512" /><path
         id="path320"
         style="fill:#1d2a30;fill-opacity:1;fill-rule:nonzero;stroke:none"
         d="m 1826.63,193.262 c 0,48.648 -39.45,88.097 -88.09,88.097 -48.66,0 -88.1,-39.449 -88.1,-88.097 0,-48.653 39.44,-88.09 88.1,-88.09 48.64,0 88.09,39.437 88.09,88.09" /><path
         id="path322"
         style="fill:#a5adad;fill-opacity:1;fill-rule:nonzero;stroke:none"
         d="m 1738.54,149.219 c -24.34,0 -44.05,19.722 -44.05,44.043 0,2.187 0.16,4.328 0.46,6.429 l 1.5,-4.082 c 4.82,-13.23 17.4,-22.019 31.47,-22.019 18.51,0 33.51,15 33.51,33.512 v 23.796 c 12.68,-7.738 21.15,-21.699 21.15,-37.636 0,-24.321 -19.72,-44.043 -44.04,-44.043" /><path
         id="path324"
         style="fill:#1d2a30;fill-opacity:1;fill-rule:nonzero;stroke:none"
         d="m 1727.92,173.59 c -14.07,0 -26.65,8.789 -31.47,22.019 l -51.96,142.161 h 116.94 V 207.102 c 0,-18.512 -15,-33.512 -33.51,-33.512" /><path
         id="path326"
         style="fill:#758288;fill-opacity:1;fill-rule:nonzero;stroke:none"
         d="m 1727.92,173.59 c -14.07,0 -26.65,8.789 -31.47,22.019 l -51.96,142.161 h 116.94 v -8.719 -4.539 -2.5 -114.91 c 0,-18.512 -15,-33.512 -33.51,-33.512" /><path
         id="path328"
         style="fill:#4870c0;fill-opacity:1;fill-rule:nonzero;stroke:none"
         d="m 1798.39,440.352 h 932.488 V 1085.86 H 1798.39 Z" /><path
         id="path330"
         style="fill:#8daee0;fill-opacity:1;fill-rule:nonzero;stroke:none"
         d="m 2391.8,440.352 h -160.7 v 645.508 h 246.59 -85.89 V 810.262 h -80.33 v -84.403 h 80.33 V 440.352" /><path
         id="path332"
         style="fill:#a3bfe8;fill-opacity:1;fill-rule:nonzero;stroke:none"
         d="M 2231.1,440.352 H 1798.39 V 1085.86 H 2231.1 V 440.352 m -94.95,136.5 c -5.1,0 -9.23,-4.133 -9.23,-9.231 V 493.77 c 0,-5.098 4.13,-9.231 9.23,-9.231 h 54.07 c 5.1,0 9.23,4.133 9.23,9.231 v 73.851 c 0,5.098 -4.13,9.231 -9.23,9.231 h -54.07 m -97.58,0 c -5.1,0 -9.23,-4.133 -9.23,-9.231 V 493.77 c 0,-5.098 4.13,-9.231 9.23,-9.231 h 54.07 c 5.09,0 9.23,4.133 9.23,9.231 v 73.851 c 0,5.098 -4.14,9.231 -9.23,9.231 h -54.07 M 1826.63,1052.23 V 928.129 h 124.1 v 124.101 h -124.1" /><path
         id="path334"
         style="fill:#7b99d5;fill-opacity:1;fill-rule:nonzero;stroke:none"
         d="m 2190.22,484.539 h -54.07 c -5.1,0 -9.23,4.133 -9.23,9.231 v 73.851 c 0,5.098 4.13,9.231 9.23,9.231 h 54.07 c 5.1,0 9.23,-4.133 9.23,-9.231 V 493.77 c 0,-5.098 -4.13,-9.231 -9.23,-9.231" /><path
         id="path336"
         style="fill:#7b99d5;fill-opacity:1;fill-rule:nonzero;stroke:none"
         d="m 2092.64,484.539 h -54.07 c -5.1,0 -9.23,4.133 -9.23,9.231 v 73.851 c 0,5.098 4.13,9.231 9.23,9.231 h 54.07 c 5.09,0 9.23,-4.133 9.23,-9.231 V 493.77 c 0,-5.098 -4.14,-9.231 -9.23,-9.231" /><path
         id="path338"
         style="fill:#678acf;fill-opacity:1;fill-rule:nonzero;stroke:none"
         d="m 2311.47,725.859 h 80.332 v 84.4023 h -80.332 z" /><path
         id="path340"
         style="fill:#7b99d5;fill-opacity:1;fill-rule:nonzero;stroke:none"
         d="m 1826.63,928.129 h 124.102 v 124.102 H 1826.63 Z" /><path
         id="path342"
         style="fill:#4870c0;fill-opacity:1;fill-rule:nonzero;stroke:none"
         d="m 1893.62,1085.86 h 932.488 v 645.5 H 1893.62 Z" /><path
         id="path344"
         style="fill:#26489d;fill-opacity:1;fill-rule:nonzero;stroke:none"
         d="m 2464.44,1085.86 h -138.11 v 645.5 h 138.11 v -275.61 h -57.74 v -84.39 h 57.74 v -285.5" /><path
         id="path346"
         style="fill:#4569b7;fill-opacity:1;fill-rule:nonzero;stroke:none"
         d="m 2326.33,1085.86 h -432.71 v 645.5 h 432.71 v -645.5 m -94.95,136.49 c -5.1,0 -9.23,-4.14 -9.23,-9.23 v -73.85 c 0,-5.1 4.13,-9.23 9.23,-9.23 h 54.07 c 5.1,0 9.23,4.13 9.23,9.23 v 73.85 c 0,5.09 -4.13,9.23 -9.23,9.23 h -54.07 m -97.58,0 c -5.09,0 -9.23,-4.14 -9.23,-9.23 v -73.85 c 0,-5.1 4.14,-9.23 9.23,-9.23 h 54.07 c 5.09,0 9.23,4.13 9.23,9.23 v 73.85 c 0,5.09 -4.14,9.23 -9.23,9.23 h -54.07 m -211.94,475.39 v -124.11 h 124.1 v 124.11 h -124.1" /><path
         id="path348"
         style="fill:#355291;fill-opacity:1;fill-rule:nonzero;stroke:none"
         d="m 2285.45,1130.04 h -54.07 c -5.1,0 -9.23,4.13 -9.23,9.23 v 73.85 c 0,5.09 4.13,9.23 9.23,9.23 h 54.07 c 5.1,0 9.23,-4.14 9.23,-9.23 v -73.85 c 0,-5.1 -4.13,-9.23 -9.23,-9.23" /><path
         id="path350"
         style="fill:#355291;fill-opacity:1;fill-rule:nonzero;stroke:none"
         d="m 2187.87,1130.04 h -54.07 c -5.09,0 -9.23,4.13 -9.23,9.23 v 73.85 c 0,5.09 4.14,9.23 9.23,9.23 h 54.07 c 5.09,0 9.23,-4.14 9.23,-9.23 v -73.85 c 0,-5.1 -4.14,-9.23 -9.23,-9.23" /><path
         id="path352"
         style="fill:#263c79;fill-opacity:1;fill-rule:nonzero;stroke:none"
         d="m 2406.7,1371.36 h 57.7422 v 84.3906 H 2406.7 Z" /><path
         id="path354"
         style="fill:#355291;fill-opacity:1;fill-rule:nonzero;stroke:none"
         d="m 1921.86,1573.63 h 124.102 v 124.109 H 1921.86 Z" /><path
         id="path356"
         style="fill:#4870c0;fill-opacity:1;fill-rule:nonzero;stroke:none"
         d="m 2464.44,1085.86 h 932.488 v 645.5 H 2464.44 Z" /><path
         id="path358"
         style="fill:#8daee0;fill-opacity:1;fill-rule:nonzero;stroke:none"
         d="m 3396.93,1085.86 h -499.78 v 645.5 h 499.78 v -484.42 -161.08 m -419.41,369.89 v -84.39 h 363.02 v 84.39 h -363.02 m 166.23,275.61 v -67.25 h 52.74 v 67.25 h -52.74" /><path
         id="path360"
         style="fill:#a3bfe8;fill-opacity:1;fill-rule:nonzero;stroke:none"
         d="m 2897.15,1085.86 h -432.71 v 645.5 h 432.71 v -645.5 m -94.94,136.49 c -5.1,0 -9.24,-4.14 -9.24,-9.23 v -73.85 c 0,-5.1 4.14,-9.23 9.24,-9.23 h 54.06 c 5.1,0 9.23,4.13 9.23,9.23 v 73.85 c 0,5.09 -4.13,9.23 -9.23,9.23 h -54.06 m -97.59,0 c -5.09,0 -9.23,-4.14 -9.23,-9.23 v -73.85 c 0,-5.1 4.14,-9.23 9.23,-9.23 h 54.07 c 5.1,0 9.23,4.13 9.23,9.23 v 73.85 c 0,5.09 -4.13,9.23 -9.23,9.23 h -54.07 m -211.94,475.39 v -124.11 h 124.1 v 124.11 h -124.1" /><path
         id="path362"
         style="fill:#7b99d5;fill-opacity:1;fill-rule:nonzero;stroke:none"
         d="m 2856.27,1130.04 h -54.06 c -5.1,0 -9.24,4.13 -9.24,9.23 v 73.85 c 0,5.09 4.14,9.23 9.24,9.23 h 54.06 c 5.1,0 9.23,-4.14 9.23,-9.23 v -73.85 c 0,-5.1 -4.13,-9.23 -9.23,-9.23" /><path
         id="path364"
         style="fill:#7b99d5;fill-opacity:1;fill-rule:nonzero;stroke:none"
         d="m 2758.69,1130.04 h -54.07 c -5.09,0 -9.23,4.13 -9.23,9.23 v 73.85 c 0,5.09 4.14,9.23 9.23,9.23 h 54.07 c 5.1,0 9.23,-4.14 9.23,-9.23 v -73.85 c 0,-5.1 -4.13,-9.23 -9.23,-9.23" /><path
         id="path366"
         style="fill:#4765a2;fill-opacity:1;fill-rule:nonzero;stroke:none"
         d="m 3143.75,1664.11 h 52.7383 v 67.25 H 3143.75 Z" /><path
         id="path368"
         style="fill:#678acf;fill-opacity:1;fill-rule:nonzero;stroke:none"
         d="m 2977.52,1371.36 h 363.02 v 84.3906 h -363.02 z" /><path
         id="path370"
         style="fill:#7b99d5;fill-opacity:1;fill-rule:nonzero;stroke:none"
         d="m 2492.68,1573.63 h 124.102 v 124.109 H 2492.68 Z" /><path
         id="path372"
         style="fill:#4870c0;fill-opacity:1;fill-rule:nonzero;stroke:none"
         d="m 2141.91,1731.36 h 932.48 v 645.512 h -932.48 z" /><path
         id="path374"
         style="fill:#658acf;fill-opacity:1;fill-rule:nonzero;stroke:none"
         d="m 2574.61,1731.36 h -432.7 v 645.51 h 432.7 v -645.51 m -94.94,136.49 c -5.1,0 -9.23,-4.13 -9.23,-9.23 v -73.84 c 0,-5.1 4.13,-9.23 9.23,-9.23 h 54.07 c 5.09,0 9.23,4.13 9.23,9.23 v 73.84 c 0,5.1 -4.14,9.23 -9.23,9.23 h -54.07 m -97.58,0 c -5.1,0 -9.23,-4.13 -9.23,-9.23 v -73.84 c 0,-5.1 4.13,-9.23 9.23,-9.23 h 54.06 c 5.1,0 9.24,4.13 9.24,9.23 v 73.84 c 0,5.1 -4.14,9.23 -9.24,9.23 h -54.06 m -211.95,475.39 v -124.1 h 124.11 v 124.1 h -124.11" /><path
         id="path376"
         style="fill:#4b70c0;fill-opacity:1;fill-rule:nonzero;stroke:none"
         d="m 2533.74,1775.55 h -54.07 c -5.1,0 -9.23,4.13 -9.23,9.23 v 73.84 c 0,5.1 4.13,9.23 9.23,9.23 h 54.07 c 5.09,0 9.23,-4.13 9.23,-9.23 v -73.84 c 0,-5.1 -4.14,-9.23 -9.23,-9.23" /><path
         id="path378"
         style="fill:#4b70c0;fill-opacity:1;fill-rule:nonzero;stroke:none"
         d="m 2436.15,1775.55 h -54.06 c -5.1,0 -9.23,4.13 -9.23,9.23 v 73.84 c 0,5.1 4.13,9.23 9.23,9.23 h 54.06 c 5.1,0 9.24,-4.13 9.24,-9.23 v -73.84 c 0,-5.1 -4.14,-9.23 -9.24,-9.23" /><path
         id="path380"
         style="fill:#26489d;fill-opacity:1;fill-rule:nonzero;stroke:none"
         d="m 2821.21,2309.62 h 52.75 v 67.25 h -52.75 z" /><path
         id="path382"
         style="fill:#395eb4;fill-opacity:1;fill-rule:nonzero;stroke:none"
         d="M 2654.98,2016.87 H 3018 v 84.3906 h -363.02 z" /><path
         id="path384"
         style="fill:#4b70c0;fill-opacity:1;fill-rule:nonzero;stroke:none"
         d="m 2170.14,2219.14 h 124.109 v 124.098 H 2170.14 Z" /><path
         id="path386"
         style="fill:#1d2a30;fill-opacity:1;fill-rule:nonzero;stroke:none"
         d="m 2391.8,440.352 h 932.488 V 1085.86 H 2391.8 Z" /><path
         id="path388"
         style="fill:#45555c;fill-opacity:1;fill-rule:nonzero;stroke:none"
         d="M 3324.29,440.352 H 2824.51 V 1085.86 H 2391.8 V 440.352 1085.86 h 932.49 v -185.739 -2.5 -445.992 -2.5 -8.777 m -419.41,369.91 v -84.403 h 363.01 v 84.403 h -363.01 m 166.22,275.598 v -67.26 h 52.75 v 67.26 h -52.75" /><path
         id="path390"
         style="fill:#6a797f;fill-opacity:1;fill-rule:nonzero;stroke:none"
         d="M 2824.51,440.352 H 2391.8 v 645.508 h 432.71 V 440.352 m -94.95,136.5 c -5.1,0 -9.23,-4.133 -9.23,-9.231 V 493.77 c 0,-5.098 4.13,-9.231 9.23,-9.231 h 54.07 c 5.1,0 9.23,4.133 9.23,9.231 v 73.851 c 0,5.098 -4.13,9.231 -9.23,9.231 h -54.07 m -97.58,0 c -5.1,0 -9.23,-4.133 -9.23,-9.231 V 493.77 c 0,-5.098 4.13,-9.231 9.23,-9.231 h 54.06 c 5.1,0 9.23,4.133 9.23,9.231 v 73.851 c 0,5.098 -4.13,9.231 -9.23,9.231 h -54.06 M 2420.03,1052.23 V 928.129 h 124.11 v 124.101 h -124.11" /><path
         id="path392"
         style="fill:#525d63;fill-opacity:1;fill-rule:nonzero;stroke:none"
         d="m 2783.63,484.539 h -54.07 c -5.1,0 -9.23,4.133 -9.23,9.231 v 73.851 c 0,5.098 4.13,9.231 9.23,9.231 h 54.07 c 5.1,0 9.23,-4.133 9.23,-9.231 V 493.77 c 0,-5.098 -4.13,-9.231 -9.23,-9.231" /><path
         id="path394"
         style="fill:#525d63;fill-opacity:1;fill-rule:nonzero;stroke:none"
         d="m 2686.04,484.539 h -54.06 c -5.1,0 -9.23,4.133 -9.23,9.231 v 73.851 c 0,5.098 4.13,9.231 9.23,9.231 h 54.06 c 5.1,0 9.23,-4.133 9.23,-9.231 V 493.77 c 0,-5.098 -4.13,-9.231 -9.23,-9.231" /><path
         id="path396"
         style="fill:#282e32;fill-opacity:1;fill-rule:nonzero;stroke:none"
         d="m 3071.1,1018.6 h 52.75 v 67.2578 h -52.75 z" /><path
         id="path398"
         style="fill:#364248;fill-opacity:1;fill-rule:nonzero;stroke:none"
         d="m 2904.88,725.859 h 363.012 v 84.4023 H 2904.88 Z" /><path
         id="path400"
         style="fill:#525d63;fill-opacity:1;fill-rule:nonzero;stroke:none"
         d="m 2420.03,928.129 h 124.109 v 124.102 H 2420.03 Z" /></g></g></svg>